<svg width="21" height="25" viewBox="0 0 21 25" fill="none" xmlns="http://www.w3.org/2000/svg">
<mask id="path-1-inside-1_249_2689" fill="white">
<rect x="0.945557" y="9.42676" width="5.39113" height="9.18011" rx="0.457949"/>
</mask>
<rect x="0.945557" y="9.42676" width="5.39113" height="9.18011" rx="0.457949" fill="#777778" stroke="#777778" stroke-width="1.46544" mask="url(#path-1-inside-1_249_2689)"/>
<mask id="path-2-inside-2_249_2689" fill="white">
<rect x="8.17456" y="0.40625" width="5.39113" height="18.2181" rx="0.457949"/>
</mask>
<rect x="8.17456" y="0.40625" width="5.39113" height="18.2181" rx="0.457949" fill="#777778" stroke="#777778" stroke-width="1.46544" mask="url(#path-2-inside-2_249_2689)"/>
<mask id="path-3-inside-3_249_2689" fill="white">
<rect x="15.2122" y="4.72363" width="5.39113" height="13.8117" rx="0.457949"/>
</mask>
<rect x="15.2122" y="4.72363" width="5.39113" height="13.8117" rx="0.457949" fill="#777778" stroke="#777778" stroke-width="1.46544" mask="url(#path-3-inside-3_249_2689)"/>
<path d="M10.7656 24.3342C10.2038 24.3342 9.64193 24.3408 9.0857 24.3342C8.50218 24.3244 8.1145 23.9538 8.1145 23.4262C8.1145 22.8985 8.51582 22.5181 9.0857 22.5148C10.2319 22.5094 11.3783 22.5094 12.525 22.5148C13.0965 22.5148 13.497 22.9026 13.4962 23.427C13.4954 23.9514 13.1085 24.3179 12.525 24.3359H10.7656V24.3342Z" fill="#777778"/>
<path d="M3.6187 24.3346C3.04561 24.3346 2.47253 24.3427 1.89944 24.3346C1.31191 24.3239 0.942687 23.9574 0.948305 23.4143C0.953924 22.8711 1.33759 22.5144 1.92352 22.5144C3.06969 22.5095 4.21613 22.5095 5.36284 22.5144C5.93191 22.5144 6.32601 22.9087 6.32039 23.438C6.31397 23.9501 5.93432 24.3215 5.37889 24.3329C4.79216 24.3411 4.20543 24.3346 3.6187 24.3346Z" fill="#777778"/>
<path d="M17.9552 24.3339C17.3933 24.3339 16.8315 24.3396 16.2753 24.3339C15.6685 24.3249 15.276 23.9461 15.2904 23.4013C15.3049 22.8737 15.6982 22.5162 16.2833 22.5146C17.4166 22.5108 18.5497 22.5108 19.6825 22.5146C20.27 22.5146 20.6545 22.8753 20.6625 23.4095C20.6705 23.9666 20.2925 24.3208 19.6745 24.3355H17.9552V24.3339Z" fill="#777778"/>
</svg>
