<svg width="23" height="24" viewBox="0 0 23 24" fill="none" xmlns="http://www.w3.org/2000/svg">
<g >
<path d="M22.0482 23.284C21.9602 23.3098 21.8699 23.3271 21.7785 23.3356C19.4639 23.3389 17.1489 23.3389 14.8335 23.3356C14.782 23.3356 14.7304 23.33 14.6311 23.3238V22.9917C14.6311 21.4789 14.6418 19.9654 14.6274 18.4526C14.6104 16.5872 13.2308 15.1365 11.3591 14.9891C9.38435 14.8337 7.63521 16.3689 7.59813 18.3294C7.56859 19.8734 7.58996 21.4179 7.5887 22.9625V23.3176H0.215046C0.208761 23.215 0.195562 23.1068 0.195562 22.9986C0.195562 18.3346 0.194095 13.6711 0.191162 9.00799C0.191162 8.80466 0.242072 8.66662 0.412398 8.53666C3.91067 5.86539 7.40518 3.18894 10.8959 0.507309C11.0562 0.382948 11.1574 0.375487 11.3233 0.502957C14.8224 3.19039 18.3242 5.8743 21.8288 8.55469C21.9036 8.6119 21.9753 8.67159 22.0482 8.73066V23.284Z" fill="black"/>
</g>
</svg>
