<svg width="24" height="24" viewBox="0 0 24 24" fill="none" xmlns="http://www.w3.org/2000/svg">
<g >
<path d="M19.6643 8.44305L19.6643 8.44341C19.6618 9.93902 19.2166 11.4003 18.3849 12.6424C17.5532 13.8846 16.3725 14.8519 14.992 15.4222C13.6116 15.9924 12.0933 16.14 10.6291 15.8464C9.16485 15.5528 7.82037 14.8311 6.7656 13.7724C5.71082 12.7137 4.99312 11.3656 4.70331 9.89839C4.4135 8.43122 4.56461 6.91095 5.13752 5.52979C5.71043 4.14863 6.67937 2.96865 7.92179 2.13894C9.1642 1.30923 10.6243 0.867009 12.1176 0.868108L12.118 0.868108C13.1104 0.868044 14.0932 1.06403 15.0099 1.44486C15.9266 1.82569 16.7593 2.38388 17.4604 3.0875C18.1614 3.79112 18.7169 4.62634 19.0951 5.54534C19.4733 6.46434 19.6668 7.44905 19.6643 8.44305ZM14.8635 8.42099L14.8635 8.42082C14.8546 6.90652 13.6036 5.66323 12.0905 5.67743L12.0866 5.6775C11.3633 5.69052 10.6742 5.9881 10.1685 6.5057C9.66274 7.02328 9.38089 7.71925 9.38368 8.4431C9.38646 9.16695 9.67367 9.86073 10.1834 10.3744C10.6931 10.8881 11.3844 11.1803 12.1078 11.1878V11.1878L12.1132 11.1878C13.6271 11.1854 14.8717 9.9322 14.8635 8.42099Z" fill="#777778" stroke="#777778" stroke-width="0.915899"/>
<path d="M14.7571 18.4071C17.1376 17.7346 19.0476 16.4099 20.5156 14.3999L23.5554 18.7418H18.9851L17.8362 23.3368L14.7571 18.4071Z" fill="#777778"/>
<path d="M9.47049 18.4001C8.4415 20.0488 7.43168 21.6694 6.38892 23.3382C5.99905 21.7787 5.62147 20.2713 5.24242 18.7556H0.66333L3.70901 14.4028C5.17016 16.3936 7.07082 17.7262 9.47049 18.4001Z" fill="#777778"/>
<path d="M14.4059 8.42399C14.4138 9.68129 13.3735 10.7284 12.1154 10.7303C11.5125 10.7242 10.9363 10.4806 10.5113 10.0523C10.0864 9.62408 9.84683 9.04554 9.8445 8.44183C9.84217 7.83812 10.0773 7.25775 10.4989 6.82622C10.9205 6.3947 11.4949 6.1467 12.0977 6.13584C13.3524 6.12403 14.3986 7.16078 14.4059 8.42399Z" fill="white"/>
</g>
</svg>
