<svg width="22" height="19" viewBox="0 0 22 19" fill="none" xmlns="http://www.w3.org/2000/svg">
<path d="M16.0945 6.98822C16.0945 7.73744 16.1209 8.48216 16.0857 9.23138C16.0505 10.0838 16.3058 10.815 16.834 11.461C16.8956 11.5373 16.9529 11.6136 17.0057 11.6943C17.195 11.986 17.1597 12.1878 16.9001 12.4121C16.3454 12.8877 15.7952 13.3677 15.2406 13.8433C14.9105 14.1259 14.7036 14.1215 14.3691 13.8433C13.9201 13.4709 13.5679 13.0133 13.2554 12.5243C13.1806 12.4077 13.141 12.4121 13.0485 12.5019C12.4939 13.0537 11.9085 13.5651 11.1646 13.8209C10.0157 14.2201 8.84927 14.283 7.69601 13.8657C6.58677 13.4619 5.92211 12.6275 5.6756 11.4655C5.40269 10.169 5.54355 8.93525 6.32704 7.83611C6.92129 7.00616 7.7444 6.51715 8.69077 6.21659C9.66796 5.91152 10.6759 5.79487 11.6883 5.69169C11.9745 5.66028 12.2562 5.63337 12.5423 5.60646C12.6127 5.60195 12.6743 5.59298 12.6699 5.49878C12.6611 5.02324 12.7095 4.5387 12.5995 4.07213C12.4586 3.47547 12.0757 3.12552 11.4903 2.9954C11.0721 2.90119 10.6583 2.9281 10.2534 3.0672C9.63714 3.28252 9.25416 3.71771 9.10012 4.36372C9.01649 4.71814 8.85361 4.84376 8.51467 4.80784C7.79279 4.73157 7.07091 4.65531 6.35344 4.57904C6.05851 4.54763 5.90447 4.31883 5.96608 4.0272C6.34022 2.1654 7.53752 1.12009 9.263 0.640045C10.5879 0.27219 11.9305 0.249745 13.2598 0.631075C14.3294 0.936139 15.2274 1.47451 15.7292 2.54223C16.0153 3.14789 16.0813 3.80287 16.0901 4.45789C16.0989 5.29689 16.0901 6.14479 16.0945 6.98822C16.0945 6.98822 16.0901 6.98822 16.0945 6.98822ZM12.6699 8.38795C12.6699 8.16362 12.6612 7.93933 12.6744 7.71499C12.6832 7.5759 12.6347 7.52654 12.4983 7.54002C12.1638 7.5714 11.8248 7.5759 11.4903 7.62075C10.9049 7.69702 10.3326 7.84508 9.85724 8.22191C9.16615 8.77375 9.02091 9.52744 9.13532 10.3753C9.2718 11.3713 10.1433 11.9231 11.0765 11.5911C11.7104 11.3668 12.0977 10.8913 12.3662 10.2946C12.6479 9.68898 12.6699 9.03846 12.6699 8.38795Z" fill="white"/>
<path fill-rule="evenodd" clip-rule="evenodd" d="M11.041 18.5137C7.68247 18.4912 4.66726 17.612 1.94257 15.7591C1.38794 15.3822 0.859721 14.9695 0.357942 14.5164C0.313936 14.476 0.269893 14.4357 0.234688 14.3863C0.186263 14.319 0.151058 14.2382 0.208284 14.1575C0.265511 14.0677 0.362361 14.0588 0.445991 14.0991C0.639654 14.1933 0.824553 14.2965 1.0138 14.3952C2.74812 15.3284 4.57483 16.0013 6.48959 16.4275C8.22387 16.8133 9.97575 16.9928 11.7541 16.9434C14.2939 16.8717 16.7413 16.3512 19.0962 15.3867C19.2107 15.3373 19.3295 15.288 19.4484 15.261C19.6157 15.2296 19.7829 15.2521 19.8577 15.436C19.9282 15.6065 19.8357 15.7411 19.7125 15.8488C19.6244 15.925 19.5232 15.9878 19.422 16.0551C17.9034 17.06 16.2395 17.7061 14.4788 18.1054C13.3167 18.3746 12.1371 18.5047 11.041 18.5137Z" fill="white"/>
<path fill-rule="evenodd" clip-rule="evenodd" d="M19.5145 14.5161C19.0083 14.5116 18.5066 14.5789 18.0047 14.6328C17.9079 14.6417 17.7979 14.6686 17.7539 14.561C17.701 14.4398 17.8023 14.3681 17.8859 14.3098C18.511 13.8881 19.2108 13.7221 19.9459 13.6817C20.4521 13.6503 20.9539 13.6728 21.4469 13.8252C21.6714 13.8925 21.7815 14.0271 21.7771 14.2604C21.7507 15.5076 21.3413 16.5933 20.4566 17.4771C20.4257 17.5085 20.3905 17.5354 20.3553 17.5624C20.2761 17.6207 20.1793 17.6745 20.0956 17.6027C20.0164 17.5354 20.0604 17.4367 20.0956 17.356C20.3553 16.6965 20.6194 16.0415 20.747 15.3372C20.7647 15.2474 20.7691 15.1577 20.7735 15.0725C20.7779 14.7808 20.6766 14.6552 20.3949 14.5835C20.1 14.5027 19.8051 14.5161 19.5145 14.5161Z" fill="white"/>
</svg>
