<svg width="21" height="25" viewBox="0 0 21 25" fill="none" xmlns="http://www.w3.org/2000/svg">
<g clip-path="url(#clip0_231_2302)">
<path d="M1.31002 20.3461C1.35568 20.2701 1.40137 20.1941 1.44706 20.1181C1.87906 19.3997 2.31194 18.6797 2.73654 17.9549L2.73654 17.9549L2.73792 17.9525C2.86768 17.7282 2.93882 17.4748 2.94481 17.2157L2.94491 17.2157L2.94494 17.2061C2.94881 16.2231 2.94806 15.2457 2.94732 14.2696C2.94637 13.0174 2.94542 11.7674 2.95419 10.511L2.95419 10.511C2.96937 8.30479 3.75551 6.43991 5.39514 4.99562L1.31002 20.3461ZM1.31002 20.3461H19.3248C19.3061 20.315 19.2874 20.2839 19.2687 20.2529C18.8147 19.4991 18.3581 18.741 17.9126 17.9783L17.9107 17.9751C17.7737 17.7366 17.6991 17.4673 17.6938 17.1923L17.6937 17.1855H17.6937C17.6875 16.0868 17.6875 14.9884 17.6876 13.8917V13.8587C17.6876 12.7506 17.6876 11.6441 17.6811 10.5378L17.681 10.5317H17.6811C17.6839 10.0776 17.644 9.62424 17.5618 9.17764C17.002 6.35955 15.3918 4.43887 12.7122 3.50713L12.712 3.50707C10.0171 2.56899 7.54926 3.10055 5.39536 4.99544L1.31002 20.3461Z" stroke="#F7F7F7"/>
<path d="M5.83374 21.7451H14.8098C14.6734 22.0407 14.5852 22.3202 14.4283 22.5539C14.0385 23.1324 13.4699 23.4953 12.833 23.7402C10.9869 24.45 9.16017 24.4124 7.37295 23.5324C6.89496 23.2973 6.47203 22.9763 6.18602 22.5173C6.0452 22.291 5.96091 22.029 5.83374 21.7451Z" fill="#F7F7F7"/>
<path d="M12.3532 1.23584V2.93389C11.0175 2.61976 9.62757 2.61776 8.29102 2.92803V1.23584H12.3532Z" fill="#F7F7F7"/>
</g>
<defs>
<clipPath id="clip0_231_2302">
<rect width="19.7647" height="24" fill="white" transform="translate(0.43457 0.23584)"/>
</clipPath>
</defs>
</svg>
