<svg width="29" height="22" viewBox="0 0 29 22" fill="none" xmlns="http://www.w3.org/2000/svg">
<path d="M2.81876 0.660156H27.0006C28.0697 0.660156 28.9097 1.48851 28.9097 2.57175V17.2273C28.9097 18.3105 28.0697 19.1389 27.0006 19.1389H2.81876C1.73694 19.1389 0.909668 18.3105 0.909668 17.2273V2.57175C0.909668 1.48851 1.73694 0.660156 2.81876 0.660156ZM11.9951 5.75774V14.0413L19.2624 9.8358L11.9951 5.75774ZM21.5915 21.6877H8.10058C7.71876 21.6877 7.46421 21.4328 7.46421 21.0505C7.46421 20.6682 7.71876 20.4133 8.10058 20.4133H21.7188C22.1006 20.4133 22.3551 20.6682 22.3551 21.0505C22.3551 21.4328 21.9733 21.6877 21.5915 21.6877Z" fill="white"/>
</svg>
