<svg width="24" height="13" viewBox="0 0 24 13" fill="none" xmlns="http://www.w3.org/2000/svg">
<path d="M3.68848 2.13184C3.13848 2.13184 2.68848 1.68184 2.68848 1.13184C2.68848 0.581836 3.13848 0.131836 3.68848 0.131836H6.22848C5.87848 0.731836 5.68848 1.42184 5.68848 2.13184H3.68848ZM5.68848 7.13184H2.68848C2.13848 7.13184 1.68848 6.68184 1.68848 6.13184C1.68848 5.58184 2.13848 5.13184 2.68848 5.13184H5.68848V7.13184ZM1.68848 12.1318C1.13648 12.1318 0.688477 11.6818 0.688477 11.1318C0.688477 10.5818 1.13648 10.1318 1.68848 10.1318H5.68848C5.68848 10.8418 5.87848 11.5318 6.22848 12.1318H1.68848ZM21.6885 0.131836H9.68848C8.57848 0.131836 7.68848 1.02184 7.68848 2.13184V10.1318C7.68848 11.2418 8.57848 12.1318 9.68848 12.1318H21.6885C22.7985 12.1318 23.6885 11.2418 23.6885 10.1318V2.13184C23.6885 1.02184 22.7985 0.131836 21.6885 0.131836ZM21.6885 2.13184V3.13184H9.68848V2.13184H21.6885ZM9.68848 10.1318V6.13184H21.6885V10.1318H9.68848Z" fill="#3DB8FC"/>
</svg>
