<svg width="20" height="22" viewBox="0 0 20 22" fill="none" xmlns="http://www.w3.org/2000/svg">
<path d="M2.6645 1.4235C2.56285 1.4245 2.46212 1.44295 2.36671 1.47805V1.12571C2.36671 0.632969 2.76824 0.231445 3.26097 0.231445H16.3771C16.8699 0.231445 17.2714 0.632969 17.2714 1.12571V1.4235H2.6645ZM18.1656 3.5107H1.77024C1.2775 3.5107 0.875977 3.91223 0.875977 4.40497V20.7995C0.875977 21.2922 1.2775 21.6937 1.77024 21.6937H8.29835L9.28025 16.6456H7.2771C7.2315 16.6456 2.6645 16.4301 2.6645 16.4301L6.81298 16.1377L6.74323 15.8104L4.97438 15.5555L6.65738 15.4142L6.54649 15.0127L3.79664 14.5951C3.79664 14.5951 6.78437 14.2615 6.82997 14.2615H9.72023L9.94111 13.0713C10.1996 11.6261 10.7862 10.5611 11.7055 9.76875C12.6293 8.97107 13.8016 8.57759 15.2262 8.57759C15.8012 8.57759 16.1679 8.71263 16.327 8.99164C16.4326 9.15797 16.5068 9.45307 16.5765 9.75981C16.6427 10.0746 16.7017 10.3599 16.6615 10.5673C16.6105 10.8758 16.2492 10.9832 15.5911 10.9832H15.3648C14.1781 10.9832 13.4565 11.6655 13.2141 13.0489L12.9968 14.2606H14.374C14.8873 14.2606 15.0724 14.6201 14.9302 15.4285C14.7782 16.27 14.4482 16.6447 13.9367 16.6447H12.5613L11.5812 21.6937H18.1647C18.6575 21.6937 19.059 21.2922 19.059 20.7995V4.40497C19.059 4.16795 18.9649 3.94062 18.7974 3.77294C18.6299 3.60526 18.4027 3.51094 18.1656 3.5107ZM17.5692 2.31776C17.5689 2.23885 17.5375 2.16325 17.4817 2.10745C17.4259 2.05166 17.3503 2.02021 17.2714 2.01997H2.6645C2.58559 2.02021 2.50999 2.05166 2.45419 2.10745C2.3984 2.16325 2.36695 2.23885 2.36671 2.31776V2.91423H17.5692V2.31776Z" fill="white"/>
</svg>
