<svg width="30" height="27" viewBox="0 0 30 27" fill="none" xmlns="http://www.w3.org/2000/svg">
<path d="M29.0755 14.6155C29.0755 16.2159 27.794 17.4991 26.1957 17.4991H3.15672C1.5728 17.4991 0.276855 16.2159 0.276855 14.6155C0.276855 13.015 1.5728 11.7318 3.15672 11.7318H16.1161L19.716 14.6155L23.3158 11.7318H26.1957C27.794 11.7318 29.0755 13.0295 29.0755 14.6155ZM14.6762 0.197266C1.71679 0.197266 1.71679 8.84818 1.71679 8.84818H27.6356C27.6356 8.84818 27.6356 0.197266 14.6762 0.197266ZM1.71679 21.8246C1.71679 24.218 3.6463 26.15 6.03659 26.15H23.3158C25.7061 26.15 27.6356 24.218 27.6356 21.8246V20.3827H1.71679V21.8246Z" fill="white"/>
</svg>
