<svg width="26" height="21" viewBox="0 0 26 21" fill="none" xmlns="http://www.w3.org/2000/svg">
<path d="M16.9142 1.50144C18.8912 1.50144 20.4942 10.1082 20.4942 20.7252H23.3587C23.3587 9.29119 20.4731 0.0224609 16.9144 0.0224609C14.8896 0.0224609 13.083 2.80808 11.9019 7.16401C10.7208 2.80808 8.91371 0.0224609 6.88904 0.0224609C3.33033 0.0224609 0.444336 9.29119 0.444336 20.7252H3.30923C3.30923 10.1082 4.91231 1.50144 6.88904 1.50144C8.86635 1.50144 10.4699 9.44613 10.4699 19.247H13.3338C13.3338 9.44613 14.9367 1.50144 16.9142 1.50144V1.50144ZM24.7926 19.247C25.1811 19.247 25.5068 19.5646 25.5068 19.9826C25.5068 20.4071 25.1811 20.7249 24.7926 20.7249C24.4026 20.7249 24.0743 20.4069 24.0743 19.9826C24.0743 19.5646 24.4026 19.247 24.7926 19.247ZM24.7926 20.6171C25.1217 20.6171 25.3772 20.3441 25.3772 19.9828C25.3772 19.6279 25.1214 19.3552 24.7926 19.3552C24.4594 19.3552 24.2041 19.6279 24.2041 19.9828C24.2041 20.344 24.4594 20.6171 24.7926 20.6171ZM24.5141 19.5533H24.8369C25.0344 19.5533 25.1275 19.6345 25.1275 19.8001C25.1275 19.9561 25.0332 20.0214 24.9094 20.0351L25.147 20.4171H25.0076L24.7812 20.0455H24.6444V20.4171H24.5145V19.5533H24.5141V19.5533ZM24.6441 19.9371H24.7793C24.8934 19.9371 24.9983 19.9312 24.9983 19.7943C24.9983 19.6794 24.9031 19.6614 24.8156 19.6614H24.6443L24.6441 19.9371Z" fill="#F7C746"/>
</svg>
