<svg width="14" height="25" viewBox="0 0 14 25" fill="none" xmlns="http://www.w3.org/2000/svg">
<path d="M8.86747 0.955359L8.85747 6.26236L8.84947 11.5694L8.41247 10.3374L7.84547 22.1474C8.40047 23.7144 8.69747 24.5474 8.70047 24.5544C8.70347 24.5614 9.02047 24.5784 9.40047 24.5964C10.5575 24.6464 11.9905 24.7764 13.0815 24.9064C13.2035 24.9264 13.3435 24.9374 13.4865 24.9374C13.5135 24.9374 13.5395 24.9374 13.5655 24.9364H13.5615C13.5745 24.9264 13.5815 19.5154 13.5785 12.9244L13.5685 0.953359H8.86747V0.955359ZM0.356469 0.943359V12.9354C0.356469 19.5304 0.363469 24.9324 0.371469 24.9374C0.379469 24.9424 0.787469 24.9074 1.27847 24.8514C1.76947 24.7954 2.44847 24.7214 2.78847 24.6914C3.30647 24.6414 4.85647 24.5414 5.03647 24.5414C5.08847 24.5414 5.09247 24.2714 5.09947 19.4604L5.10747 14.3794L5.48747 15.4394L5.61747 15.8154L6.18747 4.01336L5.99747 3.46736L5.08747 0.943359H0.355469L0.356469 0.943359Z" fill="white"/>
</svg>
