<svg width="23" height="26" viewBox="0 0 23 26" fill="none" xmlns="http://www.w3.org/2000/svg">
<path d="M11.6692 14.9606C10.0917 14.9606 8.57877 14.3331 7.46328 13.2162C6.3478 12.0992 5.72112 10.5843 5.72112 9.00474H8.10036C8.10036 9.9525 8.47637 10.8614 9.14566 11.5316C9.81495 12.2018 10.7227 12.5783 11.6692 12.5783C12.6157 12.5783 13.5235 12.2018 14.1928 11.5316C14.8621 10.8614 15.2381 9.9525 15.2381 9.00474H17.6173C17.6173 10.5843 16.9906 12.0992 15.8752 13.2162C14.7597 14.3331 13.2468 14.9606 11.6692 14.9606ZM11.6692 3.04886C12.6157 3.04886 13.5235 3.42535 14.1928 4.09552C14.8621 4.76569 15.2381 5.67463 15.2381 6.62239H8.10036C8.10036 5.67463 8.47637 4.76569 9.14566 4.09552C9.81495 3.42535 10.7227 3.04886 11.6692 3.04886ZM19.9966 6.62239H17.6173C17.6173 5.84025 17.4635 5.06577 17.1645 4.34317C16.8656 3.62057 16.4275 2.964 15.8752 2.41094C15.3228 1.85789 14.6671 1.41918 13.9455 1.11987C13.2238 0.820557 12.4503 0.666504 11.6692 0.666504C10.0917 0.666504 8.57877 1.294 7.46328 2.41094C6.3478 3.52789 5.72112 5.04279 5.72112 6.62239H3.34189C2.02141 6.62239 0.962646 7.68253 0.962646 9.00474V23.2989C0.962646 23.9307 1.21332 24.5367 1.65951 24.9834C2.1057 25.4302 2.71087 25.6812 3.34189 25.6812H19.9966C20.6276 25.6812 21.2327 25.4302 21.6789 24.9834C22.1251 24.5367 22.3758 23.9307 22.3758 23.2989V9.00474C22.3758 7.68253 21.3051 6.62239 19.9966 6.62239Z" fill="white"/>
</svg>
