<svg width="14" height="21" viewBox="0 0 14 21" fill="none" xmlns="http://www.w3.org/2000/svg">
<path d="M7.08146 20.4623C6.76208 20.1132 5.31895 18.2675 3.72632 15.7796C3.26169 15.0015 2.96101 14.395 3.01876 14.2387C3.16996 13.831 5.86851 13.6076 6.69922 13.9771C6.95235 14.0893 6.94555 14.2379 6.94555 14.3245C6.94555 14.6983 6.92686 15.6997 6.92686 15.6997C6.92698 15.749 6.93679 15.7977 6.95574 15.8432C6.97468 15.8886 7.0024 15.9299 7.0373 15.9646C7.0722 15.9994 7.11361 16.0269 7.15915 16.0457C7.20469 16.0644 7.25348 16.074 7.30272 16.0739C7.35197 16.0738 7.40071 16.064 7.44617 16.045C7.49163 16.0261 7.5329 15.9983 7.56765 15.9634C7.60239 15.9285 7.62992 15.8871 7.64866 15.8416C7.66741 15.7961 7.677 15.7473 7.67689 15.698L7.67264 13.2016C7.67264 12.985 7.43651 12.9307 7.39149 12.9222C6.95744 12.9205 6.07661 12.9171 5.13123 12.9171C3.04425 12.9171 2.57793 13.0029 2.22372 12.771C1.45586 12.269 0.199599 8.88327 0.170719 6.97891C0.129099 4.2931 1.72088 1.96658 3.96245 0.813945C4.92786 0.328024 5.99385 0.0754914 7.07466 0.0766642C10.6226 0.0766642 13.5446 2.75483 13.9336 6.2L13.9344 6.20935C14.0058 7.04261 9.41476 7.21929 8.50675 6.97721C8.36745 6.93983 8.33177 6.79713 8.33177 6.73598L8.32668 4.32028C8.32645 4.22071 8.28668 4.1253 8.21612 4.05505C8.14555 3.9848 8.04997 3.94547 7.95039 3.94569C7.85082 3.94592 7.75542 3.98569 7.68517 4.05625C7.61492 4.12682 7.57558 4.2224 7.57581 4.32198L7.58345 7.60576C7.58426 7.67036 7.60736 7.7327 7.64884 7.78223C7.69032 7.83176 7.74764 7.86544 7.81109 7.87757L10.66 7.87672C12.1804 7.87672 12.8192 8.05255 13.2439 8.37617C13.5267 8.59192 13.6354 9.00388 13.5403 9.53985C12.6867 14.3084 7.28446 20.216 7.08146 20.4623Z" fill="#F7F7F7"/>
</svg>
