<svg width="18" height="25" viewBox="0 0 18 25" fill="none" xmlns="http://www.w3.org/2000/svg">
<path d="M9.0098 24.7325C8.62257 24.3093 6.87284 22.0714 4.94185 19.0549C4.37851 18.1116 4.01394 17.3762 4.08397 17.1867C4.26729 16.6924 7.53916 16.4216 8.54636 16.8695C8.85326 17.0055 8.84502 17.1857 8.84502 17.2908C8.84502 17.7439 8.82236 18.9581 8.82236 18.9581C8.8225 19.0178 8.83439 19.0769 8.85737 19.132C8.88034 19.1871 8.91395 19.2372 8.95627 19.2793C8.99858 19.3214 9.04878 19.3548 9.104 19.3775C9.15922 19.4003 9.21837 19.4119 9.27808 19.4118C9.33779 19.4116 9.39689 19.3997 9.452 19.3768C9.50711 19.3538 9.55716 19.3202 9.59929 19.2779C9.64141 19.2355 9.67479 19.1853 9.69751 19.1301C9.72024 19.0749 9.73187 19.0158 9.73173 18.956L9.72658 15.9293C9.72658 15.6667 9.44028 15.6008 9.3857 15.5905C8.85944 15.5884 7.79147 15.5843 6.64524 15.5843C4.11487 15.5843 3.54948 15.6883 3.12002 15.4071C2.18903 14.7985 0.665865 10.6935 0.63085 8.38452C0.580386 5.1281 2.51035 2.30731 5.22815 0.909793C6.39867 0.320637 7.69113 0.0144521 9.00156 0.0158741C13.3033 0.0158741 16.846 3.26303 17.3177 7.44014L17.3187 7.45147C17.4052 8.46176 11.8388 8.67597 10.7379 8.38246C10.569 8.33715 10.5258 8.16413 10.5258 8.08998L10.5196 5.16106C10.5193 5.04033 10.4711 4.92466 10.3855 4.83949C10.3 4.75431 10.1841 4.70662 10.0633 4.70689C9.94262 4.70716 9.82695 4.75538 9.74177 4.84094C9.6566 4.9265 9.6089 5.04239 9.60918 5.16312L9.61845 9.14456C9.61943 9.22289 9.64743 9.29847 9.69773 9.35852C9.74802 9.41857 9.81751 9.45941 9.89445 9.47412L13.3486 9.47309C15.1921 9.47309 15.9665 9.68627 16.4814 10.0786C16.8244 10.3402 16.9562 10.8397 16.8409 11.4896C15.8059 17.2712 9.25594 24.4339 9.0098 24.7325Z" fill="#F1833B"/>
</svg>
