<svg width="34" height="8" viewBox="0 0 34 8" fill="none" xmlns="http://www.w3.org/2000/svg">
<path d="M27.2384 0.747559L25.547 1.3835L25.3225 2.33809L24.7229 2.36633L24.5682 3.68124H25.1168L24.8331 5.71142C24.657 6.9739 24.8815 7.56816 25.9961 7.56816C26.6522 7.56816 27.2196 7.33287 27.5221 7.16885L27.717 5.9588C27.4925 6.0704 27.1308 6.21426 26.8861 6.21426C26.5541 6.21426 26.5151 6.03947 26.5836 5.55815L26.8377 3.68124H27.9711C28.0115 3.40427 28.1473 2.50212 28.1863 2.33675H27.0233L27.2384 0.747559ZM22.1576 2.09474C22.0029 2.09743 21.8403 2.10818 21.6722 2.12969C21.036 2.20134 20.4204 2.39878 19.8612 2.71051L20.2107 3.77132C20.5724 3.56965 21.0376 3.39486 21.5257 3.33301C22.249 3.24428 22.5434 3.46746 22.5878 3.8372C22.6066 3.98375 22.5932 4.10475 22.5811 4.22576L22.5623 4.30105C22.0763 4.20654 21.5784 4.1902 21.0874 4.25265C20.3909 4.33735 19.8195 4.61969 19.4686 5.05934C19.3253 5.25781 19.2245 5.48371 19.1724 5.72291C19.1204 5.96211 19.1182 6.20947 19.1661 6.44954C19.3368 7.23338 19.9096 7.57892 20.7781 7.47136C21.3831 7.39741 21.8698 7.10834 22.2248 6.62433C22.2192 6.76123 22.2057 6.89769 22.1845 7.03305C22.1634 7.16556 22.131 7.296 22.0877 7.42295L23.7602 7.4243C23.7516 7.26084 23.7511 7.09706 23.7589 6.93356C23.8073 6.31644 23.9175 5.39681 24.0909 4.17601C24.1227 3.91249 24.1218 3.64606 24.0883 3.38276C23.9807 2.51691 23.2439 2.07995 22.1576 2.09474V2.09474ZM30.9452 2.17944C29.3398 2.17944 28.1123 3.61401 28.1123 5.32824C28.1123 6.61761 28.8545 7.60446 30.3011 7.60446C31.9145 7.60446 33.134 6.16989 33.134 4.44491C33.134 3.16764 32.4107 2.17944 30.9452 2.17944ZM15.1111 2.23457C14.3878 2.23457 13.6053 2.85975 13.0675 3.89636C13.2046 3.21873 13.175 2.44968 13.136 2.28566C12.5639 2.38191 11.9857 2.43672 11.4057 2.44968C11.4234 3.00857 11.3905 3.56791 11.3075 4.12089L11.083 5.66033C10.9943 6.26535 10.8975 6.96314 10.7993 7.40413H12.6184C12.6278 7.13658 12.6964 6.7171 12.7448 6.34736L12.9007 5.29059C13.0285 4.60356 13.5757 3.79283 13.9965 3.79283C14.2412 3.79283 14.2318 4.02946 14.1632 4.47045L13.9871 5.66033C13.8984 6.26535 13.8016 6.96314 13.7034 7.40413H15.5413C15.5521 7.13658 15.6099 6.71575 15.6596 6.34736L15.8156 5.29059C15.942 4.60221 16.4905 3.79283 16.91 3.79283C17.1547 3.79283 17.1453 4.0187 17.1063 4.32525L16.6667 7.40413H18.3446L18.9335 3.89636C19.0612 3.02378 18.9926 2.23457 18.0246 2.23457C17.3214 2.23457 16.5591 2.83017 16.0213 3.82375C16.1383 3.00361 16.0697 2.23457 15.1111 2.23457V2.23457ZM8.54998 2.24532C6.96751 2.24532 5.75343 3.66107 5.75343 5.35378C5.75343 6.62567 6.48753 7.59908 7.91538 7.59908C9.5086 7.59908 10.7119 6.18468 10.7119 4.48121C10.7119 3.22008 9.99799 2.24532 8.55132 2.24532H8.54998ZM1.65812 2.36767C1.59089 2.89202 1.52098 3.41368 1.42283 3.88694C1.86382 3.87619 2.25507 3.86543 3.31991 3.86543L0.886378 6.50063L0.866211 7.44581C1.46316 7.40548 2.20667 7.39338 3.05773 7.39338C3.81871 7.39338 4.58238 7.40413 5.07043 7.44581C5.15783 6.83003 5.24522 6.41997 5.35278 5.91713C4.98304 5.93729 4.33769 5.94805 3.31991 5.94805L5.75343 3.30075L5.78436 2.36767C5.19682 2.39859 4.66843 2.40801 3.74073 2.40801C2.73371 2.40801 2.42985 2.39859 1.65812 2.36767V2.36767ZM8.36444 3.61401C8.70728 3.61401 8.91299 3.92056 8.91299 4.5565C8.91299 5.48017 8.54191 6.23846 8.07134 6.23846C7.72042 6.23846 7.51472 5.92116 7.51472 5.29463C7.51472 4.36155 7.89521 3.61401 8.36444 3.61401ZM30.722 3.61401C31.0635 3.61401 31.2692 3.92056 31.2692 4.5565C31.2692 5.48017 30.8981 6.23846 30.4289 6.23846C30.0766 6.23846 29.8709 5.92116 29.8709 5.29463C29.8709 4.36155 30.2527 3.61401 30.722 3.61401ZM21.7193 5.03648C21.9962 5.03245 22.2611 5.06875 22.4587 5.11446L22.4413 5.27311C22.3404 5.86469 21.9169 6.45761 21.3011 6.53425C20.8843 6.58399 20.524 6.33526 20.4837 6.0099C20.4704 5.91242 20.4771 5.81326 20.5035 5.71848C20.5298 5.62369 20.5753 5.53529 20.6369 5.45865C20.7943 5.24488 21.0887 5.09833 21.4423 5.05531C21.5351 5.04321 21.6278 5.03783 21.7193 5.03648V5.03648Z" fill="#D4312C"/>
</svg>
